<svg xmlns="http://www.w3.org/2000/svg" width="900" height="120" fill="none" viewBox="0 0 900 120">
  <linearGradient id="textGradient" x1="0%" y1="0%" x2="0%" y2="100%">
    <stop offset="0%"   stop-color="#621600" />
    <stop offset="25%"  stop-color="#ff7a18" />
    <stop offset="50%"  stop-color="#fafafa" />
    <stop offset="50%"  stop-color="#ff7a18" />
    <stop offset="90%"  stop-color="#8c2a00" />
    <stop offset="100%" stop-color="#621600" />
  </linearGradient>
  <path fill="url(#textGradient)" d="M133.84 3q12.64 0 21.12 4.4 8.56 4.4 12.8 11.68 4.32 7.2 4.32 15.68 0 6.72-2.32 13.2-2.24 6.4-7.44 13.6-5.2 7.12-13.84 15.84-8.56 8.72-21.2 20h47.36l-2.72 19.28H98.24V98.76q10.96-10.56 19.04-18.72t13.6-14.48q5.6-6.32 8.96-11.28 3.44-4.96 4.96-9.12 1.52-4.24 1.52-8.16 0-6.72-3.92-10.64-3.84-3.92-10.96-3.92-6.32 0-10.96 2.64t-8.96 8.56L96 21.96q6.24-8.64 15.36-13.76Q120.48 3 133.84 3M224.64 1q12 0 20.4 3.92 8.48 3.84 12.88 10.32 4.48 6.4 4.48 14.16 0 7.04-2.8 12.32-2.8 5.2-7.92 8.72-5.04 3.52-11.92 5.52 7.68 1.04 13.52 4.16 5.92 3.04 9.28 8.72t3.36 14.64q0 9.36-5.2 17.04-5.12 7.68-14.72 12.32-9.6 4.56-22.96 4.56-12.4 0-22.24-4.32-9.84-4.4-16.8-12.32l14.24-13.28q4.8 5.52 10.64 8.08 5.92 2.48 12.48 2.48 8.24 0 13.44-4.16 5.2-4.24 5.2-12.16 0-5.92-2.24-9.52-2.16-3.68-6.4-5.36-4.16-1.68-10.16-1.68h-10.08L214 47.72h7.2q4.88 0 8.64-1.6t5.92-4.8q2.16-3.28 2.16-8.08 0-6.24-4.48-9.84t-11.6-3.6q-6.64 0-12.08 2.56-5.36 2.56-10.08 7.04l-12.96-13.44q7.6-7.36 17.04-11.12Q213.2 1 224.64 1M441.16 3l-2.8 18.08H397.8V45a34.4 34.4 0 0 1 8.4-2.72q4.32-.8 8-.8 8.56 0 15.6 4.32 7.12 4.32 11.28 12.4 4.24 8.08 4.24 19.28t-5.52 20.08q-5.44 8.88-15.2 14-9.76 5.04-22.8 5.04-12.08 0-21.36-4.48-9.28-4.56-15.44-12.08l14.56-13.28q4 5.12 9.2 7.84 5.28 2.64 11.04 2.64 8.8 0 14.08-5.36 5.36-5.36 5.36-14 0-6.88-1.92-11.04-1.84-4.16-5.2-6-3.36-1.92-7.84-1.92-3.04 0-6.48.8t-7.12 2.88h-17.04V3zM579.36 116.44l-24-7.44 41.36-86.96H548V3h74.32v17.12zM712.08 31.36q0 7.76-4.16 13.36t-13.04 10.64q11.2 5.6 16.32 13.28 5.2 7.6 5.2 16.96 0 8.56-4.72 16.08-4.64 7.44-13.92 12.08-9.2 4.64-23.04 4.64-13.52 0-22.64-4.48-9.04-4.48-13.6-11.76Q634 94.8 634 86.24q0-9.52 5.52-16.56t14.88-11.12q-8.48-5.44-12.32-11.04-3.76-5.68-3.76-14.88 0-7.12 2.8-12.72a28.5 28.5 0 0 1 7.76-9.68q5.04-4 11.76-6.08Q667.44 2 675.36 2q8.08 0 14.8 2.08 6.72 2 11.6 5.84 4.96 3.84 7.6 9.28 2.72 5.36 2.72 12.16m-20.96 54.08q0-5.52-2.24-8.96-2.16-3.44-6.8-5.92-4.64-2.56-12.16-5.2-3.2 2.08-5.6 4.96-2.4 2.8-3.76 6.4-1.28 3.6-1.28 8 0 6.88 4 11.28 4.08 4.32 12.08 4.32 8.24 0 12-4.4 3.76-4.48 3.76-10.48m-28.72-52.8q0 3.92 1.68 6.88 1.76 2.96 5.36 5.28t9.12 4.4q5.44-4 7.44-7.84 2-3.92 2-8.56 0-5.92-3.2-9.76-3.12-3.84-9.44-3.84-6.16 0-9.6 3.44-3.36 3.36-3.36 10M64.16 96.76h20.72v19.12H12.8V96.76h26.72V29.88l-22.8 14.24L6 26.76 41.76 5h22.4zM326.32 10.92l-26.24 63.52h19.959l2.921-26.72h21.36v26.72h11.12V93.4h-11.12v23.28h-24.24l-.187-23.28H274V76.6L304.8 3z M503.08 2q7.36 0 13.36 1.92 6.08 1.92 10.72 5.2l-9.6 15.36q-3.2-2.32-6.88-3.36-3.6-1.12-7.12-1.12-6.4 0-11.44 4.08-4.96 4.08-7.92 11.92-2.386 6.495-2.904 15.407 4.498-4.652 10.024-7.087 6.72-2.96 13.28-2.96 8.64 0 15.68 4.32 7.04 4.24 11.2 12.48 4.16 8.16 4.16 19.92 0 11.12-4.8 20.32-4.8 9.12-13.68 14.56-8.8 5.44-20.88 5.44-11.04 0-18.88-4.16-7.84-4.24-12.8-11.52-4.96-7.36-7.28-16.88-2.32-9.6-2.32-20.32 0-18.72 5.76-33.04 5.84-14.32 16.56-22.4Q488.12 2 503.08 2m-5.04 56.8q-5.04 0-9.92 2.8-3.738 2.145-6.772 5.653.27 15.6 3.092 23.787 3.2 9.28 12.16 9.28 7.12 0 10.4-6.08 3.36-6.08 3.36-14.72 0-7.6-1.52-12.08-1.44-4.56-4.16-6.56-2.72-2.08-6.64-2.08M765.4 1q13.6 0 22.64 5.6t13.6 15.6q4.56 9.921 4.56 23.04 0 15.92-4.08 28.24-4 12.24-12.32 21.2-8.24 8.96-21.04 15.12-12.72 6.08-30.16 9.68l-5.2-17.76q14.241-3.6 24-8.8 9.76-5.28 15.36-12.72 4.25-5.708 6.288-12.984-4.013 3.47-8.208 5.784-6.16 3.36-14.48 3.36-8.72 0-15.84-4.4t-11.36-12.4Q725 51.559 725 40.84q0-12 5.28-20.96 5.36-8.96 14.48-13.92Q753.96 1 765.4 1m-.16 18q-6.8 0-10.8 5.12t-4 16q0 10.24 4 14.4 4.08 4.16 9.76 4.16 5.52 0 10-2.4 2.951-1.582 5.937-4.101.067-10.627-.897-17.819-.96-7.76-4.24-11.52-3.2-3.84-9.76-3.84M855.08 2Q874.92 2 885 17.36 895.16 32.64 895.16 60q0 27.44-10.16 42.96-10.08 15.44-29.92 15.44-20 0-30.08-15.44Q815 87.44 815 60q0-27.36 10-42.64Q835.08 2 855.08 2m-9.815 95.26q.846.778 1.815 1.3 3.2 1.6 8 1.6 5.68 0 9.2-3.84 3.6-3.84 5.28-12.64 1.68-8.88 1.68-23.68-.001-8.896-.43-15.487zm9.815-76.94q-8.48 0-12.4 9.12-3.92 9.04-3.92 30.56 0 12.48.72 20.4.1.978.215 1.902l27.034-56.558q-.855-1.386-1.889-2.304-3.44-3.12-9.76-3.12" clip-rule="evenodd"/></svg>
