<svg xmlns="http://www.w3.org/2000/svg" width="90" height="1200" fill="none" viewBox="0 0 90 1200"><path fill="#fff" d="M76.9 84.5v18.15H16V84.5h21.3V39.05q-1.35 1.8-4.2 3.75-2.85 1.8-6.45 3.45t-7.2 2.7T13 50V31.25q2.7 0 6.45-1.65 3.9-1.8 7.65-4.2 3.9-2.4 6.6-4.65 2.85-2.4 3.6-3.75h20.55v67.5zM9 223.15q0-6.75 1.05-12.15t3.6-10.05q2.7-4.65 7.2-8.7 4.65-4.2 11.7-8.1 6.15-3.3 10.8-5.7 4.65-2.55 7.8-4.65 3.3-2.1 4.95-4.2 1.65-2.25 1.65-5.1 0-3-1.65-5.4-1.65-2.55-4.65-4.05t-7.5-1.5q-3.6 0-6.75.9-3 .9-5.7 2.55-2.55 1.65-4.8 3.75-2.25 1.95-4.05 4.2L9.9 150.25q2.1-2.1 5.55-4.5 3.6-2.55 8.4-4.65 4.95-2.25 10.8-3.6 6-1.5 12.75-1.5 10.2 0 17.4 3.3 7.2 3.15 10.95 8.85 3.9 5.7 3.9 13.35 0 5.25-1.95 9.3t-4.95 7.2q-3 3-6.6 5.4-3.45 2.4-6.75 4.2-4.65 2.4-8.4 4.5-3.75 1.95-6.6 4.05-2.85 1.95-5.1 4.05-2.1 2.1-3.75 4.8H81.3v18.15zM60.95 297q6.3 1.05 10.95 4.8 4.65 3.6 7.2 9.3 2.7 5.7 2.7 12.6 0 9.3-4.8 16.2t-13.65 10.65q-8.7 3.9-20.55 3.9-11.4 0-20.25-3.75-8.7-3.6-14.55-10.65l11.4-14.25q3.9 4.8 9.3 7.5 5.55 2.85 13.5 2.85 9.15 0 13.95-3.75 4.8-3.6 4.8-10.95 0-7.8-5.55-12t-16.8-4.2h-4.2v-15h4.65q9.15 0 14.25-4.2 5.25-4.2 5.25-10.5 0-4.05-1.95-6.75t-5.4-4.05q-3.3-1.35-7.8-1.35-6.75 0-12.3 3.15t-9 8.85L9.5 261.3q3.15-4.65 8.55-7.95 5.55-3.45 12.6-5.4 7.2-1.95 15-1.95 10.2 0 17.85 3.3 7.8 3.3 12.15 9.3T80 272.55q0 5.85-2.4 11.1t-6.75 8.85q-4.2 3.45-9.9 4.5M50.8 471.7v-22.35H7V431.5L57.25 367H70.9v64.35h13.2v18H70.9v22.35zm-23.7-40.35h25.95v-33.9zM42.95 594q-11.55 0-20.85-4.95T8 575.55l11.55-12q4.2 5.85 10.5 9.3t13.05 3.45q5.4 0 9.45-2.25 4.2-2.25 6.6-6.3t2.4-9.3-2.25-9.15-6.15-6q-3.9-2.25-8.85-2.25T35 543.3q-4.2 2.1-6.75 6.15H10.7L23 486h52.5v18.3H37.55l-4.35 23.85q1.95-1.8 5.4-3 3.45-1.35 8.55-1.35 10.05 0 18 4.35T77.6 540.3q4.5 7.65 4.5 17.7 0 10.65-5.1 18.75-5.1 8.25-13.95 12.75t-20.1 4.5M84.15 676.7q0 10.35-5.25 18.75-5.1 8.4-13.95 13.35-8.7 4.95-19.8 4.95-12 0-20.85-5.85-8.7-5.85-13.5-16.8T6 664.85q0-19.35 4.95-32.7 5.1-13.5 14.4-20.25 9.3-6.9 21.9-6.9 10.05 0 18.45 4.35 8.55 4.35 14.4 12.45l-11.55 12.6q-3.6-5.55-9.3-8.7-5.7-3.3-12.3-3.3-6.75 0-11.7 3.6t-7.65 10.5q-2.7 6.75-3 16.35 2.1-3.6 5.4-6.15 3.3-2.7 7.65-4.05 4.35-1.5 9.3-1.5 10.65 0 19.05 4.8 8.4 4.65 13.2 12.75 4.95 7.95 4.95 18m-39 20.1q5.4 0 9.9-2.7 4.5-2.85 7.2-7.35 2.7-4.65 2.7-10.05t-2.7-9.75q-2.7-4.5-7.2-7.05-4.35-2.7-9.75-2.7t-9.9 2.7q-4.5 2.55-7.2 7.05-2.55 4.35-2.55 9.75t2.7 10.05q2.7 4.5 7.2 7.35 4.5 2.7 9.6 2.7M53.45 745.3H5V727h80.1L32.3 833.5H9.5zM83.4 921q0 9.9-5.4 17.25-5.25 7.35-14.1 11.55-8.85 4.05-19.35 4.05-10.65 0-19.5-4.35-8.7-4.35-13.95-11.85Q6 930 6 920.25q0-6 2.55-10.8 2.55-4.95 6.3-8.4 3.9-3.6 7.8-5.55-3.6-1.8-6.75-4.8-3-3-4.8-6.9t-1.8-8.25q0-7.05 3.15-12.6t8.4-9.3q5.25-3.9 11.4-5.7Q38.55 846 44.7 846q6 0 12.3 1.95 6.3 1.8 11.55 5.55t8.4 9.3q3.3 5.4 3.3 12.6 0 4.2-1.95 8.25-1.8 3.9-4.95 7.05-3 3-6.9 4.8 4.35 2.25 8.25 5.85t6.3 8.55 2.4 11.1M63 919.8q0-3.9-1.5-6.75-1.5-3-4.2-4.95-2.7-2.1-6-3.15t-6.75-1.05q-4.8 0-9 1.95-4.05 1.95-6.6 5.55t-2.55 8.4q0 3.6 1.5 6.6 1.65 2.85 4.2 4.95 2.7 2.1 5.85 3.3 3.3 1.05 6.75 1.05 4.8 0 9-2.1t6.75-5.7 2.55-8.1m-33.3-43.65q0 4.05 2.25 6.9t5.7 4.35q3.6 1.35 7.05 1.35 3.6 0 6.9-1.5 3.45-1.5 5.7-4.2 2.4-2.85 2.4-7.05 0-3.75-2.1-6.45t-5.55-4.2q-3.3-1.5-7.5-1.5-3.9 0-7.35 1.5t-5.55 4.35q-1.95 2.7-1.95 6.45M6 1002.05q0-10.35 5.1-18.75t13.95-13.35 19.8-4.95q12.15 0 20.85 5.85 8.85 5.85 13.65 16.8 4.8 10.8 4.8 26.25 0 19.35-5.1 32.7-4.95 13.35-14.25 20.25t-21.9 6.9q-10.05 0-18.6-4.35t-14.4-12.45l11.55-12.6q3.6 5.55 9.3 8.7 5.85 3.3 12.45 3.3 6.75 0 11.55-3.6 4.95-3.6 7.65-10.35 2.85-6.9 3-16.5-1.95 3.45-5.4 6.15-3.3 2.7-7.65 4.2-4.2 1.35-9.3 1.35-10.35 0-18.9-4.65-8.4-4.8-13.35-12.75-4.8-8.1-4.8-18.15m38.85-20.1q-5.25 0-9.75 2.85-4.5 2.7-7.2 7.2t-2.7 10.05q0 5.4 2.55 9.9 2.7 4.35 7.2 7.05 4.5 2.55 9.9 2.55t9.75-2.55q4.5-2.7 7.2-7.05 2.7-4.5 2.7-9.9t-2.7-9.9q-2.7-4.65-7.2-7.35-4.5-2.85-9.75-2.85M83.4 1139.6q0 13.2-5.1 23.55-4.95 10.2-13.8 16.05-8.7 5.85-19.8 5.85t-19.95-5.85q-8.7-5.85-13.8-16.05Q6 1152.8 6 1139.6t4.95-23.4q5.1-10.35 13.8-16.2 8.85-6 19.95-6t19.8 6q8.85 5.85 13.8 16.2 5.1 10.2 5.1 23.4m-20.25 0q0-8.1-2.4-14.1-2.25-6.15-6.45-9.6t-9.6-3.45q-5.55 0-9.75 3.45t-6.6 9.6q-2.25 6-2.25 14.1t2.25 14.1q2.4 6 6.6 9.45t9.75 3.45q5.4 0 9.45-3.45 4.2-3.45 6.6-9.45 2.4-6.15 2.4-14.1"/></svg>